<svg width="14" height="14" viewBox="0 0 14 14" fill="none" xmlns="http://www.w3.org/2000/svg">
<path d="M9.79999 5.25H7.43749V7.84L8.64499 6.6325C8.73249 6.545 8.84332 6.50417 8.95416 6.50417C9.06499 6.50417 9.17582 6.545 9.26332 6.6325C9.43249 6.80167 9.43249 7.08167 9.26332 7.25083L7.30916 9.205C7.13999 9.37417 6.85999 9.37417 6.69082 9.205L4.73666 7.25083C4.56749 7.08167 4.56749 6.80167 4.73666 6.6325C4.90582 6.46333 5.18582 6.46333 5.35499 6.6325L6.56249 7.84V5.25H4.19999C2.33332 5.25 1.16666 6.41667 1.16666 8.28333V9.79417C1.16666 11.6667 2.33332 12.8333 4.19999 12.8333H9.79416C11.6608 12.8333 12.8275 11.6667 12.8275 9.8V8.28333C12.8333 6.41667 11.6667 5.25 9.79999 5.25Z" fill="#5294A0"/>
<path d="M7.4375 1.60416C7.4375 1.36499 7.23917 1.16666 7 1.16666C6.76083 1.16666 6.5625 1.36499 6.5625 1.60416V5.24999H7.4375V1.60416Z" fill="#5294A0"/>
</svg>
