<svg width="24" height="24" viewBox="0 0 24 24" fill="none" xmlns="http://www.w3.org/2000/svg">
<path d="M3.46 19.04C3.61 19.19 3.8 19.26 3.99 19.26C4.18 19.26 4.37 19.19 4.52 19.04L9.47 14.09L8.94 13.56L8.41 13.03L3.46 17.98C3.17 18.27 3.17 18.75 3.46 19.04Z" fill="#2A7F8F" fill-opacity="0.77"/>
<path d="M17.53 9.28L11.73 15.08C11.34 15.47 11.34 16.1 11.73 16.49L12.63 17.4C13.44 18.2 14.72 18.2 15.52 17.4L19.86 13.06C20.65 12.27 20.65 10.98 19.86 10.18L18.95 9.27C18.56 8.89 17.92 8.89 17.53 9.28Z" fill="#2A7F8F" fill-opacity="0.77"/>
<path d="M5.40999 10.19L9.21999 13.99C9.61999 14.39 10.26 14.39 10.66 13.99L16.44 8.20999C16.84 7.80999 16.84 7.16999 16.44 6.76999L12.63 2.95999C11.84 2.16999 10.55 2.16999 9.74999 2.95999L5.40999 7.29999C4.61999 8.09999 4.61999 9.37999 5.40999 10.19Z" fill="#2A7F8F" fill-opacity="0.77"/>
<path d="M16 21.75H22C22.41 21.75 22.75 21.41 22.75 21C22.75 20.59 22.41 20.25 22 20.25H16C15.59 20.25 15.25 20.59 15.25 21C15.25 21.41 15.59 21.75 16 21.75Z" fill="#2A7F8F" fill-opacity="0.77"/>
</svg>
